<?xml version="1.0" standalone="no"?>
<!DOCTYPE svg PUBLIC "-//W3C//DTD SVG 20010904//EN"
 "http://www.w3.org/TR/2001/REC-SVG-20010904/DTD/svg10.dtd">
<svg version="1.0" xmlns="http://www.w3.org/2000/svg"
 width="1024.000000pt" height="1024.000000pt" viewBox="0 0 1024.000000 1024.000000"
 preserveAspectRatio="xMidYMid meet">

<g transform="translate(0.000000,1024.000000) scale(0.100000,-0.100000)"
fill="#000000" stroke="none">
<path d="M2283 7500 c-214 -24 -429 -156 -520 -321 -119 -213 -91 -484 65
-644 97 -99 163 -131 491 -240 303 -101 352 -134 367 -246 10 -71 -11 -127
-66 -181 -59 -57 -118 -73 -241 -66 -155 8 -280 92 -310 208 -7 28 -15 50 -19
50 -14 0 -349 -72 -377 -81 -38 -12 -39 -16 -17 -90 65 -221 223 -371 469
-445 121 -36 330 -45 456 -19 207 41 369 145 471 300 60 92 83 177 82 315 0
261 -94 401 -339 507 -38 16 -164 60 -280 98 -237 76 -313 110 -348 157 -50
66 -56 150 -16 230 46 91 181 130 322 93 97 -25 158 -79 193 -171 15 -39 18
-42 48 -38 17 2 101 11 186 19 192 20 200 21 200 49 -1 89 -71 228 -165 322
-118 120 -283 186 -490 197 -49 3 -122 2 -162 -3z"/>
<path d="M5750 7500 c-221 -28 -412 -117 -570 -266 -130 -123 -216 -272 -268
-462 -24 -90 -26 -112 -26 -312 -1 -195 1 -223 23 -305 30 -116 85 -243 139
-323 97 -141 258 -268 423 -332 230 -89 554 -95 781 -14 261 93 466 300 558
566 98 284 87 618 -29 888 -98 228 -288 413 -513 500 -142 55 -361 80 -518 60z
m280 -417 c137 -38 242 -125 305 -256 89 -186 99 -447 24 -650 -84 -232 -246
-347 -489 -347 -213 0 -361 90 -449 273 -64 133 -75 188 -76 377 0 146 3 174
24 240 29 94 53 141 103 207 116 151 345 216 558 156z"/>
<path d="M7130 6467 l0 -1009 478 4 477 4 98 27 c230 62 358 183 412 392 31
120 12 294 -45 411 -36 74 -134 170 -209 205 -27 13 -50 26 -50 29 0 3 19 14
42 24 52 25 138 109 166 164 33 64 51 149 51 237 0 268 -149 436 -445 503 -58
13 -147 16 -522 16 l-453 1 0 -1008z m838 628 c28 -9 65 -28 83 -42 108 -91
85 -308 -38 -359 -24 -10 -88 -14 -243 -14 l-210 0 0 215 0 215 178 0 c131 0
192 -4 230 -15z m47 -816 c55 -19 120 -85 134 -134 32 -118 -13 -239 -110
-291 -30 -17 -62 -19 -251 -22 l-218 -3 0 236 0 237 203 -5 c134 -3 215 -9
242 -18z"/>
<path d="M3400 6455 l0 -1005 638 0 637 0 0 193 0 192 -417 3 -418 2 0 210 0
210 365 0 365 0 0 195 0 195 -365 0 -365 0 0 220 0 220 410 0 410 0 0 185 0
185 -630 0 -630 0 0 -1005z"/>
<path d="M2562 4400 c-101 -27 -166 -64 -238 -135 -150 -148 -185 -356 -91
-540 30 -60 124 -146 200 -183 37 -18 147 -59 245 -91 199 -65 245 -86 289
-131 62 -63 64 -182 6 -258 -50 -67 -179 -103 -289 -83 -129 24 -222 99 -251
201 l-15 56 -144 -30 c-97 -20 -144 -34 -144 -42 0 -26 51 -149 81 -196 44
-68 138 -152 211 -187 85 -41 164 -60 278 -68 300 -19 546 139 605 389 38 161
-1 317 -104 417 -64 62 -140 97 -381 174 -230 74 -288 105 -321 168 -31 61
-24 160 14 218 92 139 377 124 455 -24 8 -16 21 -52 27 -80 8 -32 17 -49 26
-48 8 1 76 9 152 19 l138 17 -7 31 c-32 151 -134 289 -259 353 -102 52 -154
65 -285 69 -102 3 -138 1 -198 -16z"/>
<path d="M5624 4391 c-110 -67 -108 -218 5 -278 56 -29 105 -29 161 0 64 32
85 66 85 137 0 66 -18 99 -75 138 -43 29 -131 31 -176 3z"/>
<path d="M7470 4080 l0 -150 -90 0 -90 0 0 -120 0 -120 89 0 89 0 4 -317 c4
-293 6 -323 26 -383 40 -122 98 -187 202 -226 50 -19 231 -23 285 -7 l30 9 3
121 3 121 -48 -15 c-53 -16 -129 -12 -162 9 -12 7 -29 29 -39 48 -15 31 -17
74 -20 338 l-4 302 131 0 131 0 0 120 0 120 -130 0 -130 0 0 150 0 150 -140 0
-140 0 0 -150z"/>
<path d="M3928 3940 c-75 -13 -141 -38 -204 -76 -178 -106 -274 -296 -274
-537 0 -289 163 -517 415 -582 78 -20 249 -20 328 1 145 37 275 139 335 264
32 66 55 147 43 154 -3 2 -69 4 -147 5 l-140 2 -12 -38 c-15 -51 -65 -109
-115 -135 -65 -34 -174 -32 -249 5 -104 51 -163 149 -174 290 -15 178 59 332
186 390 65 30 190 30 247 0 48 -26 100 -85 108 -125 l7 -28 145 0 146 0 -6 35
c-18 109 -129 251 -243 312 -106 57 -281 84 -396 63z"/>
<path d="M6602 3939 c-65 -12 -141 -51 -194 -98 -25 -22 -48 -41 -50 -41 -1 0
-1 27 0 60 l4 60 -146 0 -146 0 0 -820 0 -820 140 0 140 0 0 296 0 296 42 -37
c141 -120 362 -139 548 -47 76 37 180 142 219 221 69 136 91 333 55 494 -68
305 -330 492 -612 436z m134 -244 c137 -40 215 -170 215 -357 0 -240 -118
-376 -318 -366 -90 4 -140 25 -193 78 -71 71 -107 196 -96 328 10 112 39 177
105 242 84 83 178 108 287 75z"/>
<path d="M5263 3915 c-70 -19 -138 -54 -201 -104 l-52 -41 0 75 0 75 -145 0
-145 0 0 -585 0 -586 140 3 139 3 4 320 c3 306 4 323 26 379 28 70 86 132 156
166 40 20 66 25 127 25 l78 0 0 143 0 142 -37 -1 c-21 0 -62 -7 -90 -14z"/>
<path d="M5570 3335 l0 -585 140 0 140 0 0 585 0 585 -140 0 -140 0 0 -585z"/>
</g>
</svg>
